<svg height="341.245" viewBox="0 0 351.404 341.245"
    width="351.404" xmlns="http://www.w3.org/2000/svg"
    xmlns:xlink="http://www.w3.org/1999/xlink"><linearGradient id="a" gradientUnits="objectBoundingBox" x2="1" y1=".5" y2=".5"><stop offset="0" stop-color="#183866"/><stop offset="1" stop-color="#1a7fc1"/></linearGradient><linearGradient id="b" gradientUnits="objectBoundingBox" x1="-.001" x2="1" y1=".501" y2=".501"><stop offset="0"/><stop offset=".99" stop-opacity="0"/></linearGradient><linearGradient id="c" x1="1.761" x2="3.104" xlink:href="#b" y1="-5.66" y2="-5.346"/><linearGradient id="d" x1=".589" x2=".523" xlink:href="#b" y1="-2.58" y2="-2.773"/><linearGradient id="e" x1="1.561" x2=".081" xlink:href="#b" y1="-.633" y2="-.761"/><linearGradient id="f" x1="23.61" x2="21.626" xlink:href="#b" y1="-165.849" y2="-166.475"/><linearGradient id="g" x1="2.414" x2="1.331" xlink:href="#b" y1="-4.261" y2="-4.122"/><linearGradient id="h" gradientUnits="objectBoundingBox" x1="1.069" x2="-.358" y1=".225" y2=".193"><stop offset="0"/><stop offset="1" stop-opacity="0"/></linearGradient><linearGradient id="i" x1=".142" x2="1.142" xlink:href="#a" y1="-.413" y2="-.413"/><linearGradient id="j" x1=".404" x2=".714" xlink:href="#b" y1=".395" y2=".68"/><linearGradient id="k" x1="-.125" x2=".937" xlink:href="#b" y1=".449" y2=".534"/><linearGradient id="l" x1=".537" x2=".437" xlink:href="#b" y1=".423" y2=".806"/><linearGradient id="m" x1="1.909" x2="1.022" xlink:href="#b" y1="-3.332" y2="-3.35"/><linearGradient id="n" x1="1.686" x2="1.115" xlink:href="#b" y1="-1.263" y2="-1.269"/><linearGradient id="o" x1=".57" x2=".281" xlink:href="#b" y1=".436" y2=".7"/><linearGradient id="p" x1=".581" x2=".572" xlink:href="#b" y1="-14.736" y2="-13.702"/><linearGradient id="q" gradientUnits="objectBoundingBox" x2="1" y1=".5" y2=".5"><stop offset="0" stop-color="#ecc4d7"/><stop offset=".42" stop-color="#efd4d1"/><stop offset="1" stop-color="#f2eac9"/></linearGradient><linearGradient id="r" x1=".99" x2="1.99" xlink:href="#q" y1="-1.633" y2="-1.633"/><linearGradient id="s" x1="1.243" x2="2.243" xlink:href="#q" y1="-.846" y2="-.846"/><linearGradient id="t" gradientUnits="objectBoundingBox" x1="1.289" x2=".241" y1="1.004" y2="1.531"><stop offset="0" stop-color="#362958" stop-opacity=".502"/><stop offset="1" stop-color="#34313d" stop-opacity="0"/></linearGradient><linearGradient id="u" x1="39.909" x2="38.744" xlink:href="#b" y1="-342.252" y2="-342.683"/><path d="m373.392 9.179c-25.875-12.31-58.131-11.94-85.382-1.148-32.289 12.786-57.442 38.559-74.02 67.743-8.721 15.355-15.571 32.1-28.35 44.651-10.8 10.6-25 17.364-38.463 24.731-21.7 11.844-42.607 26.157-56.653 45.794s-20.324 45.43-11.346 67.562c6.055 14.934 18.25 26.815 30.743 37.573 14.7 12.649 30.5 24.492 48.742 32.029 22.832 9.376 48.177 11.392 73.032 12.346a990.594 990.594 0 0 0 132.073-3.768c3.09-.295 6.3-.587 9.64-.951l-.016-326.562z" fill="#eff1f7" transform="translate(-22.003 .06)"/><path d="m170.855 202.227s-11.287-2-14.449 5.895 0 35.176 0 35.176l42.112 30.1z" fill="#3f3d56" transform="translate(-49.607 -46.144)"/><path d="m245.576 375.654-16.7 4.765a4.62 4.62 0 0 1 -5.693-2.982 4.4 4.4 0 0 1 3.094-5.487l16.674-4.769a4.62 4.62 0 0 1 5.693 2.978 4.4 4.4 0 0 1 -3.068 5.495z" fill="#2bd0d0" transform="translate(-71.37 -98.951)"/><circle cx="173.872" cy="286.927" fill="#25233a" r="7.5"/><circle cx="173.372" cy="287.427" fill="#3f3d56" r="4"/><circle cx="142.372" cy="279.427" fill="#25233a" r="7"/><path d="m210.48 382.74a3.74 3.74 0 1 1 -3.74-3.74 3.74 3.74 0 0 1 3.74 3.74z" fill="url(#a)" transform="translate(-64.969 -102.791)"/><ellipse cx="139.372" cy="289.927" fill="#25233a" rx="7" ry="7.5"/><path d="m212.48 397.74a3.74 3.74 0 1 1 -3.74-3.74 3.74 3.74 0 0 1 3.74 3.74z" fill="#3f3d56" transform="translate(-65.609 -107.592)"/><g fill="#2bd0d0"><path d="m239.135 383.553-34.535-6.831a4.418 4.418 0 0 1 -3.514-5.192 4.5 4.5 0 0 1 5.293-3.445l34.533 6.818a4.419 4.419 0 0 1 3.514 5.193 4.5 4.5 0 0 1 -5.293 3.457z" transform="translate(-64.329 -99.271)"/><path d="m226 310h9.519v40.117a4.757 4.757 0 1 1 -9.515 0v-40.117z" transform="translate(-72.33 -80.708)"/><path d="m220.566 382.641-16.684 4.777a4.617 4.617 0 0 1 -5.695-2.984 4.405 4.405 0 0 1 3.092-5.49l16.684-4.763a4.618 4.618 0 0 1 5.69 2.979 4.4 4.4 0 0 1 -3.088 5.48z" transform="translate(-63.369 -101.191)"/></g><path d="m234.08 386.177-2.125.375a8.762 8.762 0 0 1 -1.955.117l.887-.155a7 7 0 0 0 1.7-.513z" fill="url(#b)" transform="translate(-73.61 -105.032)"/><path d="m253.959 370.582a4.7 4.7 0 0 1 -.993 2.9l-13.966-2.96a4.837 4.837 0 0 0 .747-1.674l8.6-2.667a4.216 4.216 0 0 1 3.341.394 4.564 4.564 0 0 1 2.1 2.753 4.856 4.856 0 0 1 .171 1.255z" fill="url(#c)" transform="translate(-76.49 -98.631)"/><path d="m225.15 351.867a3.928 3.928 0 0 1 -.15-1.074v-39.793h4.041v42.885a1.28 1.28 0 0 0 .039.632 6.308 6.308 0 0 0 -1.934-.347 12.21 12.21 0 0 0 -1.412 0l.289-.068c.178-.027-.639-1.422-.872-2.234z" fill="url(#d)" opacity=".31" transform="translate(-72.01 -81.028)"/><path d="m242.034 385.7a4.535 4.535 0 0 1 -2.156.541 4.8 4.8 0 0 1 -.9-.088l-15.236-3-1.269-.247a4.446 4.446 0 0 1 -1.45.717l-.755.216-15.656 4.533a4.539 4.539 0 0 1 -5.612-2.959 3.938 3.938 0 0 0 4.911.273c1.911-1.289 9.521-3.225 13.831-4.254a5.22 5.22 0 0 0 3.976-4.08 2.817 2.817 0 0 1 .054-.352 9.982 9.982 0 0 0 4.423 2.327 118.6 118.6 0 0 0 15.413 2.927 2.693 2.693 0 0 1 .426 3.446z" fill="url(#e)" opacity=".31" transform="translate(-63.689 -102.151)"/><path d="m263.36 388a5.185 5.185 0 0 1 -1.36 1.36q.688-.672 1.36-1.36z" fill="url(#f)" transform="translate(-83.851 -105.672)"/><path d="m218.2 369.42a4.637 4.637 0 0 0 1.156 2.128c-.143.026-.289.063-.436.1l-14.463 4.189a4.5 4.5 0 0 1 -3.43-4.859 4.551 4.551 0 0 1 4.458-3.98 4.86 4.86 0 0 1 .918.09z" fill="url(#g)" transform="translate(-64.329 -98.951)"/><path d="m237.557 81.916s-.188-14.146-11.61-12.926-10.547-3.464-15.426-2.95-10.546 5.294-8.919 11.2-4.305 7.223-8.2 11.7.917 8.143 7.484 12.522-.408 3.245 3.485 10.169 17.072-1.921 17.072-1.921z" fill="#503164" transform="translate(-61.448 -2.618)"/><path d="m120.851 380.961 7.976.271v-63.742s.4-16.483 15.946-18.136 156.527-22.076 156.527-22.076 5.588-.592 8.806 10.132 6.351 52.892 6.351 52.892l43.272 5.832s1.142-74.489-14.484-78.6-219.984 16.836-219.984 16.836-15.156 79.114-4.41 96.591z" fill="#2bd0d0" transform="translate(-37.445 -66.946)"/><path d="m120.851 380.961 7.976.271v-63.742s.4-16.483 15.946-18.136 156.527-22.076 156.527-22.076 5.588-.592 8.806 10.132 6.351 52.892 6.351 52.892l43.272 5.832s1.142-74.489-14.484-78.6-219.984 16.836-219.984 16.836-15.156 79.114-4.41 96.591z" fill="url(#h)" opacity=".197" transform="translate(-37.445 -66.946)"/><path d="m62 280.49s3.906-21.593 31.376-27.252l193.912-22.2s19.036-.789 27.745 4.479 21.139 9.634 26.235 33.47 6.314 64.556 6.314 64.556l-4.821.748s-7.036-73.735-14.491-78.4-209.02 23.972-209.02 23.972-13.981 2.78-15.2 23.48 0 65.687 0 65.687l-42.05-16.959z" fill="#2bd0d0" transform="translate(-19.843 -55.425)"/><path d="m297.681 242.934a183.727 183.727 0 0 0 -30.271-1.85c-7.6.294-15.154 1.337-22.692 2.375l-66.483 9.181c-1.129.156-2.414.41-2.978 1.39-1.083 1.871 1.462 3.715 3.524 4.428 22.105 7.654 45.722 15.405 68.477 9.948 10.4-2.495 20.066-7.675 30.618-9.475s21.383-.143 31.912-1.84c9.9-1.594 19.322-6.126 29.355-6.17 3.077 0 6.244.392 9.162-.571s5.5-3.9 4.692-6.834c-9.419-.325-19.993-2.045-29.233-.178-9.143 1.845-16.925-.404-26.083-.404z" fill="url(#i)" opacity=".19" transform="translate(-56.007 -58.625)"/><path d="m267 256.7.388 1.437s11.478 6.917 11.406 7.14 47.613-11.043 47.613-11.043l1.109-3.234z" fill="#2bd0d0" transform="translate(-85.452 -61.826)"/><path d="m267 256.7.388 1.437s11.478 6.917 11.406 7.14 47.613-11.043 47.613-11.043l1.109-3.234z" fill="url(#j)" transform="translate(-85.452 -61.826)"/><path d="m268 255.087 42.23-9.087 17.606 3.437-47.976 11.522z" fill="#2bd0d0" transform="translate(-85.772 -60.226)"/><path d="m268 255.087 42.23-9.087 17.606 3.437-47.976 11.522z" fill="url(#k)" transform="translate(-85.772 -60.226)"/><path d="m246.285 266.809 9.83.348s2.5.155 3.141-1.847-4-6.228-4.5-6.308-13.436 3.549-11.571 7.178l3.1.63z" fill="#2bd0d0" transform="translate(-77.77 -64.386)"/><path d="m246.285 266.809 9.83.348s2.5.155 3.141-1.847-4-6.228-4.5-6.308-13.436 3.549-11.571 7.178l3.1.63z" fill="url(#l)" transform="translate(-77.77 -64.386)"/><path d="m63 415.718-4.8 14.739a38.267 38.267 0 0 1 -25.757 0l-3.443-15.457s17.363 5.82 34 .718z" fill="#2bd0d0" transform="translate(-9.281 -114.313)"/><path d="m63 415.718-4.8 14.739a38.267 38.267 0 0 1 -25.757 0l-3.443-15.457s17.363 5.82 34 .718z" fill="url(#m)" transform="translate(-9.281 -114.313)"/><path d="m66.2 396-1.556 11.52-3.934 2.045c-16.76 5.045-34.28-.706-34.28-.706l-3.021-2.232-1.409-10.627z" fill="#2bd0d0" transform="translate(-7.041 -108.232)"/><path d="m66.2 396-1.556 11.52-3.934 2.045c-16.76 5.045-34.28-.706-34.28-.706l-3.021-2.232-1.409-10.627z" fill="url(#n)" transform="translate(-7.041 -108.232)"/><ellipse cx="36.872" cy="286.927" fill="#2bd0d0" rx="22.5" ry="4.5"/><ellipse cx="22.5" cy="4.5" fill="url(#o)" rx="22.5" ry="4.5" transform="translate(14.372 282.427)"/><path d="m26.954 251.9c-2.164-1.03-4.49-1.807-6.362-3.311-3.772-3.06-4.728-8.328-5.909-13.054s-3.466-9.923-8.121-11.278a5.349 5.349 0 0 0 -5.11.945 5.817 5.817 0 0 0 -1.3 5.381 31.928 31.928 0 0 0 2.033 5.417 25.075 25.075 0 0 1 1.477 13.243c-.588 3.664-1.994 7.378-1.091 10.97 1.531 6.1 9.159 9.669 9.37 15.95.144 4.238-3.322 8.16-2.536 12.331.579 3.086 3.4 5.494 3.556 8.63.17 3.556-3.17 6.565-3.008 10.121s3.69 5.933 5.994 8.73a14.587 14.587 0 0 1 3.282 8.291c.121 1.9-.122 3.863.494 5.662a20.6 20.6 0 0 0 2.043 3.615 36.433 36.433 0 0 0 2.272 3.845 9.313 9.313 0 0 0 10.012 3.162c.714-4.726.09-9.547.288-14.323.39-9.254 3.87-18.579 1.643-27.562-.817-3.294-2.388-6.421-2.667-9.8-.247-3.019.552-6.009 1.109-8.987a72.429 72.429 0 0 0 .66-18.725c-.372-4.934-3.82-7.207-8.125-9.258z" fill="#2bd0d0" transform="translate(0 -53.185)"/><path d="m56.311 277.158c-.036 4.122.9 8.384-.416 12.3-1 2.966-3.2 5.395-4.332 8.311-2.618 6.731.9 14.279.186 21.466-.3 2.961-1.316 5.8-1.958 8.712a34.839 34.839 0 0 0 -.579 11.209 2.835 2.835 0 0 0 2.261 2.952 35.324 35.324 0 0 0 6.851 1.846 18.113 18.113 0 0 1 2.342-12.64c3.586-5.868 10.554-9.823 11.852-16.563.877-4.564-1.166-9.2-1.021-13.841a14.881 14.881 0 0 1 3.048-8.532c1.686-2.194 3.97-3.891 5.54-6.167 3.771-5.485 2.6-12.816 1.474-19.375s-1.773-14.108 2.659-19.078c1.4-1.571 3.228-2.75 4.5-4.429 2.831-3.742 2.116-9.508-1.176-12.853s-8.591-4.27-13.067-2.8a9.424 9.424 0 0 0 -4.766 3.237c-2.261 3.205-1.357 7.584-.4 11.394.836 3.309 1.51 7.128.366 10.465-.855 2.483-3.021 3.828-4.862 5.557a26.452 26.452 0 0 0 -8.502 18.829z" fill="#2bd0d0" transform="translate(-15.682 -54.145)"/><path d="m36.08 312.749c-.638 4.483-1.558 9-1.747 13.5v.452a1.2 1.2 0 0 1 -.075.326 35.143 35.143 0 0 0 -.589 11.22 4.288 4.288 0 0 0 .449 1.745c-.022.19-.049.375-.075.564a9.317 9.317 0 0 1 -10.016-3.163 41.616 41.616 0 0 1 -2.272-3.845 19.55 19.55 0 0 1 -2.043-3.615c-.615-1.808-.373-3.764-.494-5.662a14.587 14.587 0 0 0 -3.283-8.293c-2.3-2.779-5.839-5.111-6-8.726s3.179-6.566 3.009-10.122c-.152-3.136-2.978-5.544-3.556-8.631-.787-4.172 2.694-8.094 2.537-12.332-.211-6.281-7.841-9.856-9.373-15.952-.9-3.593.5-7.307 1.091-10.972a25.074 25.074 0 0 0 -1.459-13.232 31.824 31.824 0 0 1 -2.03-5.423 5.829 5.829 0 0 1 1.3-5.387 5.364 5.364 0 0 1 5.111-.944c4.662 1.356 6.938 6.571 8.124 11.3s2.138 9.991 5.91 13.055c1.864 1.514 4.2 2.282 6.364 3.313 4.311 2.051 7.76 4.325 8.129 9.213a73.483 73.483 0 0 1 -.66 18.727c-.558 2.978-1.348 5.97-1.11 8.988s1.545 5.875 2.4 8.8c.095.33.188.664.269 1 1.132 4.65.768 9.354.09 14.1z" fill="#30c59b" transform="translate(0 -53.185)"/><path d="m49.488 387.919a5.3 5.3 0 0 1 -.341-1.692 45.631 45.631 0 0 1 .433-10.911c.016-.105.035-.211.054-.316-.116 4.315.255 8.665-.146 12.919z" fill="url(#p)" transform="translate(-15.682 -101.511)"/><path d="m88.7 243.328c-1.272 1.68-3.1 2.857-4.506 4.429-4.438 4.966-3.786 12.518-2.663 19.078s2.3 13.89-1.477 19.375c-1.571 2.257-3.858 3.972-5.548 6.167a14.867 14.867 0 0 0 -3.053 8.532c-.144 4.645 1.9 9.277 1.024 13.84-1.3 6.74-8.278 10.7-11.87 16.564a18.117 18.117 0 0 0 -2.328 12.64 35.248 35.248 0 0 1 -6.843-1.846 3.689 3.689 0 0 1 -1.594-.962 1.705 1.705 0 0 1 -.168-.235 4.237 4.237 0 0 1 -.475-1.734 34.781 34.781 0 0 1 .6-11.208c.022-.109.05-.217.077-.325a68.915 68.915 0 0 0 1.884-8.388 27.09 27.09 0 0 0 -.109-5.553c.684-4.74 1.051-9.439-.1-14.053-.082-.333-.177-.668-.272-1 .086-.289.186-.578.3-.862 1.137-2.916 3.338-5.345 4.338-8.311 1.318-3.914.381-8.175.417-12.3a26.5 26.5 0 0 1 8.451-18.852c1.843-1.728 4.012-3.073 4.868-5.557 1.146-3.337.453-7.155-.367-10.465-.964-3.81-1.879-8.189.4-11.394a9.363 9.363 0 0 1 4.773-3.237c4.465-1.472 9.8-.547 13.088 2.8s3.99 9.132 1.155 12.853z" fill="#30c59b" transform="translate(-15.682 -54.145)"/><path d="m210.028 145.459s-18.914 2.924-27.663 23.783-4.2 46.7-4.046 48.975 26.809 12.137 34.43 12.137 9.208-7.635 9.208-7.635l-13.465-5.734 40.908-4.725h7.346l-4.046 6.821s7.985.836 13.322 1.027 8.96-10.363 9.558-15.611-23.569-51.307-27.18-54.035-13.407-9.395-38.373-5z" fill="#2bd0d0" transform="translate(-56.648 -27.581)"/><path d="m246.745 86.927s3.422 1.924 3.114 8.149-2.237 15.593-4.184 18.019-8.758 3.378-8.758 3.378 3.715 8.824 6.48 11.1-2.778 10.666-8.17 7.914-11.641-9.666-11.641-9.666 4.5-8.326 2.976-12.708-7.324-19.762-2.976-23.963 13.726-10.223 23.158-2.223z" fill="url(#q)" transform="translate(-71.05 -8.059)"/><path d="m212.947 189.04-2.947 36.755 9 4.722 7.318-1.277-9.13-11.222zm47.37-2.04s12.177 28.611 6.779 38.758l-4.159-.789z" fill="#fff" opacity=".25" transform="translate(-67.209 -41.343)"/><path d="m234.075 256.75s-4.6 3.927-2.547 6.981 4.5 2.967 6.549 1.6 6.059-4.607 10.843-3.12 5.946 2.434 5.946 2.434 2.519-1.575 1.866-3.154-5.657-6.7-7.107-7.361-7.468 1.374-7.468 1.374a10.859 10.859 0 0 0 -8.081 1.244z" fill="url(#r)" transform="translate(-73.93 -62.786)"/><path d="m291.929 245.087s-4.342.516-5.438 3.37-1.491 3.2-1.491 3.2 2.452.469 3.472-.859 2.08-.77 2.08-.77l-.3 1.7s6.662 1 9.672-.075a12.577 12.577 0 0 0 4.3-2.348l1.178-2.883s-2.842-2.06-4.985-2.38-8.488 1.045-8.488 1.045z" fill="url(#s)" transform="translate(-91.212 -59.586)"/><path d="m312.605 290s14.914 11.346 13.588 26.694-3.273 38.137-3.273 38.137-6.015 2.531-10 0-6.4-37.16-8.374-40.466-13.854-18.216-26.547-19.5z" fill="#25233a" transform="translate(-88.972 -74.307)"/><path d="m219 303.159s7.1 6.728 19.761 8.841 18.561 3.876 22.43 14.69 7.58 34.091 8.8 36.693 6.379 1.274 6.379 1.274 2.921-3.328 2.921-21.836c0-25.8 1.805-31.09-4.7-37.572s-12.429-8.249-12.429-8.249z" fill="#3f3d56" transform="translate(-70.09 -76.548)"/><path d="m294 392.48 1.238 9.653h2.317s14.924.807 15.391.459-.719-7.645-6.373-7.439-6.025-1.376-6.025-1.376zm25.158-6.694 2.392 9.413 26.135-3.544s.92-6.183-7.359-5.57c-2.185.159-3.813 1.676-6.44 1.69a8.19 8.19 0 0 1 -6.466-2.775z" fill="#25233a" transform="translate(-94.093 -104.712)"/><path d="m414.18 177.024-96.719 5.2a4.252 4.252 0 0 1 -4.461-4.024v-69.079a5.117 5.117 0 0 1 5-5.121l96.323-2a4.669 4.669 0 0 1 4.754 4.586v65.256a5.186 5.186 0 0 1 -4.893 5.182z" fill="#2bd0d0" transform="translate(-100.174 -14.139)"/><path d="m422.18 177.024-96.724 5.205a4.253 4.253 0 0 1 -4.456-4.034v-69.074a5.108 5.108 0 0 1 4.992-5.121l96.336-2a4.669 4.669 0 0 1 4.745 4.582v65.26a5.185 5.185 0 0 1 -4.893 5.182z" fill="#2bd0d0" transform="translate(-102.734 -14.139)"/><path d="m422.18 177.024-96.724 5.205a4.253 4.253 0 0 1 -4.456-4.034v-69.074a5.108 5.108 0 0 1 4.992-5.121l96.336-2a4.669 4.669 0 0 1 4.745 4.582v65.26a5.185 5.185 0 0 1 -4.893 5.182z" fill="url(#t)" transform="translate(-102.734 -14.139)"/><path d="m412.8 226.451-24.679 2.626s-7.515-1.516-7.109-2.626 8.266-2.179 8.266-2.179v-44.745a7.608 7.608 0 0 0 -3.936-2.257 14.191 14.191 0 0 0 -1.672-.388 4.933 4.933 0 0 1 -1.4-.424c-1.686-.87.177-2.387 2.793-2.455a6.543 6.543 0 0 1 1.225.072h18.98s7.186 2.022 7.534 12.111-.002 40.265-.002 40.265z" fill="#3a3054" transform="translate(-121.936 -37.183)"/><path d="m392.559 226.545-4.541 2.531s-7.4-1.516-7-2.627 8.156-2.179 8.156-2.179v-44.747a10.155 10.155 0 0 0 -3.878-2.256 19.477 19.477 0 0 0 -3.027-.813c-1.66-.87.173-2.387 2.751-2.455 2.195.3 6.517 2.739 6.8 4.129s.743 48.416.743 48.416z" fill="#51466b" transform="translate(-121.936 -37.183)"/><path d="m262.68 389c-.6.681-.877.932-.524.372a3.806 3.806 0 0 0 .524-.372z" fill="url(#u)" transform="translate(-83.852 -105.992)"/></svg>